<svg enable-background="new 0 0 195.496 194.879" height="200" viewBox="0 0 195.496 194.879" width="200" xmlns="http://www.w3.org/2000/svg"><path d="m16.154.703h122.505v194.176h-122.505z" fill="#bbd4fd"/><path d="m44.046 25.999h25.8v79.226h-25.8z" fill="#a1c3fc"/><path d="m44.046 130.773h25.8v40.226h-25.8z" fill="#a1c3fc"/><path d="m150.341 7h-146.841c-1.933 0-3.5-1.567-3.5-3.5s1.567-3.5 3.5-3.5h146.841c1.933 0 3.5 1.567 3.5 3.5s-1.568 3.5-3.5 3.5z" fill="#a1c3fc"/><path d="m55.356 71.999 66.64-59 66.64 59z" fill="#d0e1fd"/><path d="m62.767 70.288h120.841v124.591h-120.841z" fill="#d0e1fd"/><g fill="#a1c3fc"><path d="m91.046 78.999h25.8v25.8h-25.8z"/><path d="m132.496 59.999h-17.667v-15.333c0-4.879 3.955-8.833 8.833-8.833 4.879 0 8.833 3.955 8.833 8.833v15.333z"/><path d="m132.146 78.999h25.8v25.8h-25.8z"/><path d="m91.046 112.599h25.8v25.8h-25.8z"/><path d="m132.146 112.599h25.8v25.8h-25.8z"/><path d="m91.046 146.199h25.8v25.8h-25.8z"/><path d="m132.146 146.199h25.8v25.8h-25.8z"/><path d="m50.494 75.499c-.768 0-1.539-.25-2.185-.767-1.51-1.208-1.754-3.41-.547-4.919 2.039-2.548 55.575-49.212 71.936-63.454 1.333-1.162 3.324-1.145 4.64.039l70 63c1.437 1.293 1.553 3.506.26 4.943-1.294 1.438-3.506 1.554-4.943.26l-67.696-60.927c-27.223 23.706-66.355 57.962-68.783 60.576-.69.822-1.682 1.249-2.682 1.249z"/></g></svg>