<svg xmlns="http://www.w3.org/2000/svg" viewBox="0 0 3000 3000" width="300" height="300"><g transform="translate(1274.1176470588234 425.2941176470588) rotate(0.0 688.2352941176471 447.3529411764706) scale(1.7648552162558553 1.7653988100910243)"><svg width="779.934" height="506.801" viewBox="0 0 779.934 506.801"><rect fill="#fff" height="498.801" rx="25" width="771.934" x="4" y="4"/><g fill="#3375e0"><path d="M750.934 506.801H29c-15.99 0-29-13.009-29-29V29C0 13.009 13.01 0 29 0h721.935c15.99 0 29 13.009 29 29v448.801c0 15.991-13.01 29-29 29zM29 8C17.421 8 8 17.42 8 29v448.801c0 11.58 9.421 21 21 21h721.935c11.579 0 21-9.42 21-21V29c0-11.58-9.421-21-21-21z"/><path d="M719.796 124.55H267.907a4 4 0 0 1 0-8h451.889a4 4 0 0 1 0 8zm0 88.567H267.907a4 4 0 0 1 0-8h451.889a4 4 0 0 1 0 8zm0 88.567H60.138a4 4 0 0 1 0-8h659.657a4 4 0 0 1 0 8zm-225.945 88.567H60.138a4 4 0 0 1 0-8h433.713a4 4 0 0 1 0 8z"/></g></svg></g><g transform="translate(324.70588235294116 827.6470588235294) rotate(0.0 1000.5882352941177 875.2941176470588) scale(1.764765019099613 1.7663618465841135)"><svg width="1133.962" height="991.07" viewBox="0 0 1133.962 991.07"><path d="M805.834 987.07c-4.857-70.997-46.718-258.079-82.624-288.116-136.766-73.595-40.119-276.832 103.618-216.428 76.907 34.945 133.749 117.822 173.772 253.367 26.518 89.809 41.021 191.578 45.413 251.177z" fill="#a8cffb"/><path d="M1046.013 991.07H805.834a4.001 4.001 0 0 1-3.991-3.728c-2.501-36.565-14.652-101.816-29.547-158.677-17.671-67.457-36.368-113.456-51.355-126.391-72.514-39.257-79.205-112.265-54.691-163.568 13.48-28.212 35.841-50.189 62.963-61.882 30.476-13.137 64.766-12.441 99.165 2.015l.105.046c78.028 35.454 135.583 119.152 175.953 255.876 26.551 89.921 41.141 191.959 45.566 252.016a4 4 0 0 1-3.99 4.294zm-236.468-8.001h232.151c-4.76-60.146-19.183-158.839-44.933-246.043-39.664-134.332-95.777-216.383-171.537-250.834-32.328-13.572-64.432-14.271-92.846-2.021-25.344 10.926-46.266 31.519-58.912 57.984-12.65 26.476-15.54 55.716-8.134 82.335 8.299 29.834 28.968 54.365 59.771 70.941a4 4 0 0 1 .671.455c22.292 18.648 43.563 89.925 54.258 130.752 14.517 55.416 26.454 118.846 29.51 156.431z" fill="#3375e0"/><path d="M32.938 931.96c-39.266-60.582-34.997-141.288-8.511-211.347 39.707-110.448 140.251-222.362 251.53-254.285 152.589-41.955 219.853 180.016 69.491 229.719-19.871 6.011-43.748 25.229-63.787 51.022" fill="#a8cffb"/><path d="M32.942 935.961a3.994 3.994 0 0 1-3.36-1.825C10.548 904.77.604 869.699.026 829.899c-.513-35.313 6.631-73.593 20.66-110.7 20.047-55.764 55.492-111.879 99.784-157.947 47.316-49.214 100.701-83.368 154.384-98.768 36.549-10.051 70.972-6.017 99.592 11.653 25.418 15.693 44.489 41.102 53.7 71.547 9.208 30.438 7.421 62.146-5.034 89.283-14.025 30.557-40.447 52.992-76.408 64.879l-.097.031c-19.002 5.748-42.099 24.308-61.786 49.648a4 4 0 0 1-6.318-4.908c20.649-26.579 45.218-46.156 65.737-52.382 52.494-17.375 98.734-69.91 76.249-144.233-15.775-52.14-67.401-98.73-143.471-77.815-52.287 15-104.441 48.412-150.781 96.611-43.528 45.275-78.348 100.382-98.044 155.17-13.699 36.237-20.665 73.498-20.166 107.816.556 38.272 10.067 71.918 28.269 100.002a3.999 3.999 0 0 1-3.352 6.176z" fill="#3375e0"/><path d="M254.267 473.577c59.459-19.27 134.222-27.371 204.441-25.222s160.9 3.267 224.126 7.448 107.023 8.764 149.972 28.944c40.978 19.254-.149 404.237-20.713 502.322H311.524s-22.392-212.931-41.151-304.109" fill="#a8cffb"/><path d="M812.093 991.07H311.525a4 4 0 0 1-3.978-3.582c-.224-2.127-22.587-213.78-41.091-303.721a4 4 0 1 1 7.836-1.612c17.25 83.842 37.791 272.552 40.83 300.915h493.712c11.759-58.029 31.925-207.41 39.187-327.677a3.999 3.999 0 0 1 4.234-3.751 4 4 0 0 1 3.751 4.234c-7.42 122.896-28.296 276.205-39.997 332.016a4 4 0 0 1-3.915 3.179zm28.016-497.896a3.98 3.98 0 0 1-1.983-.529c-41.217-23.591-94.834-28.835-155.557-32.851-44.771-2.96-102.709-4.368-158.74-5.728-23.053-.56-44.828-1.088-65.244-1.713-87.113-2.665-156.207 6.062-205.354 25.94-2.05.83-4.38-.16-5.208-2.208a4 4 0 0 1 2.208-5.208c50.184-20.297 120.365-29.219 208.6-26.521 20.391.624 42.153 1.152 65.193 1.712 56.113 1.362 114.136 2.771 159.074 5.743 61.73 4.082 116.303 9.45 159.002 33.89a4 4 0 0 1-1.991 7.472z" fill="#3375e0"/><path d="M626.65 455.804c13.922 1.335 56.184 0 56.184 0s-26.692 88.529-113.442 92.088c-86.749 3.559-113.711-65.167-110.685-99.536h30.59l137.352 7.448z" fill="#fff"/><path d="M563.035 552.023c-41.695 0-66.851-16.928-80.796-31.542-21.438-22.466-29.267-52.589-27.515-72.478a4 4 0 0 1 3.984-3.649h30.59c.072 0 .145.002.217.006l137.352 7.448.165.012c13.508 1.295 55.255-.003 55.676-.016 1.282-.05 2.515.541 3.299 1.562s1.028 2.358.657 3.591c-.281.933-7.091 23.106-24.859 46.006-16.502 21.269-45.901 47.022-92.248 48.923a159.06 159.06 0 0 1-6.522.135zm-100.54-99.668c-.402 17.996 7.104 43.292 25.532 62.604 19.385 20.314 47.46 30.322 81.202 28.936 34.745-1.425 63.765-16.846 86.255-45.834 11.83-15.247 18.604-30.356 21.617-38.094-12.144.314-39.678.872-50.749-.173l-137.162-7.438h-26.695z" fill="#3375e0"/><path d="M489.298 452.245v-41.53H626.65v63.328" fill="#fff"/><path d="M626.65 478.043a4 4 0 0 1-4-4v-59.328H493.298v37.529a4 4 0 0 1-8 0v-41.529a4 4 0 0 1 4-4H626.65a4 4 0 0 1 4 4v63.328a4 4 0 0 1-4 4z" fill="#3375e0"/><path d="M569.392 547.892c-24.88-33.893-80.095-44.559-103.135-99.971l23.041.435v-37.64c0-40.161-92.116-41.46-97.309 31.664-3.953 55.673 81.963 122.247 152.524 126.142" fill="#a8cffb"/><path d="M544.516 572.522c-.074 0-.149-.002-.224-.006-43.871-2.422-96.936-29.558-129.043-65.99-19.268-21.863-28.691-44.143-27.25-64.43 1.458-20.526 9.679-37.371 23.777-48.714 11.775-9.474 27.327-14.587 42.66-14.052 22.881.812 38.861 13.718 38.861 31.385v37.64a4.001 4.001 0 0 1-1.198 2.855c-.767.752-1.786 1.136-2.877 1.145l-16.733-.316c13.846 28.643 36.848 44.03 59.135 58.938 15.795 10.566 30.715 20.545 40.993 34.547a4 4 0 0 1-6.449 4.735c-9.446-12.868-23.797-22.468-38.992-32.632-23.549-15.752-50.241-33.607-64.612-68.17-.519-1.247-.373-2.671.387-3.787s2.031-1.781 3.381-1.748l18.965.358v-33.564c0-15.395-15.643-22.84-31.145-23.39-26.059-.927-55.38 15.999-58.174 55.337-1.267 17.842 7.708 38.644 25.272 58.574 30.803 34.952 81.581 60.979 123.481 63.291a4 4 0 0 1-.217 7.994z" fill="#3375e0"/><path d="M554.531 558.785c22.068-35.699 94.765-31.805 112.301-102.593l-40.183-.389v-45.088s21.117-27.702 63.526-18.205c55.287 12.381 73.536 42.292 63.399 68.572-21.016 54.486-82.86 94.457-165.301 107.439" fill="#a8cffb"/><path d="M588.27 572.522a4 4 0 0 1-.617-7.951c81.145-12.778 141.776-52.003 162.191-104.927 3.697-9.585 3.104-19.413-1.715-28.423-8.478-15.849-29.369-28.21-58.826-34.807-34.992-7.838-54.543 11.186-58.652 15.765v39.664l36.221.35a4.002 4.002 0 0 1 3.845 4.962c-11.189 45.164-43.555 60.965-72.111 74.905-17.56 8.573-32.725 15.976-40.67 28.829a4 4 0 0 1-6.805-4.207c9.162-14.82 26.067-23.073 43.966-31.811 25.89-12.639 55.096-26.899 66.508-64.729l-34.992-.338a4 4 0 0 1-3.961-4v-45.088c0-.876.288-1.728.819-2.425.926-1.214 23.182-29.627 67.582-19.684 40.711 9.117 57.346 26.154 64.132 38.84 5.95 11.124 6.685 23.252 2.125 35.075-21.454 55.621-84.411 96.724-168.411 109.951-.21.033-.42.049-.627.049z" fill="#3375e0"/><path d="M544.45 442.823c12.245 2.88 23.807 4.337 33.528 4.891 70.637 4.025 115.413-28.986 134.956-61.643 16.852-28.159 23.565-53.323 26.241-97.574 5.67-93.761-12.081-178.555-140.302-186.309-128.222-7.754-156.061 74.284-161.731 168.045-2.591 42.847 1.704 78.869 14.803 105.506 9 18.302 22.629 31.556 37.351 41.839l.002 16.977" fill="#fff"/><g fill="#3375e0"><path d="M589.72 452.053c-3.94 0-7.928-.115-11.97-.345-11.224-.64-23.056-2.365-34.216-4.991a4.001 4.001 0 0 1 1.832-7.788c10.716 2.521 22.071 4.178 32.839 4.791 31.736 1.807 60.183-3.78 84.547-16.611 19.738-10.395 36.34-25.698 46.749-43.092 16.542-27.643 23.022-51.806 25.68-95.761 3.359-55.549-2.807-94.682-19.405-123.151-21.08-36.158-59.398-55.432-117.146-58.924-57.752-3.492-98.11 11.024-123.393 44.378-19.908 26.263-30.744 64.366-34.104 119.916-2.652 43.854 2.193 78.677 14.399 103.5 7.633 15.521 19.426 28.711 36.052 40.324a3.999 3.999 0 0 1 1.709 3.279l.002 16.977a4 4 0 0 1-8 0v-14.909c-16.87-12.117-28.964-25.918-36.942-42.142-12.827-26.083-17.942-62.256-15.206-107.513 3.459-57.199 14.807-96.685 35.713-124.265 27.023-35.648 69.625-51.195 130.251-47.531 60.623 3.666 101.044 24.234 123.574 62.88 17.431 29.898 23.938 70.464 20.479 127.663-2.712 44.845-9.725 70.853-26.801 99.387-11.151 18.634-28.868 34.993-49.886 46.062-22.544 11.873-48.321 17.866-76.76 17.866z"/><path d="M680.471 302.75c-11.776-6.201-24.002-8.974-38.901-11.643-9.553-1.711-9.375-12.562 4.303-17.728 12.855-4.856 37.449 1.886 44.898 13.92 7.771 12.554-.69 20.513-10.301 15.451z"/><path d="M686.218 308.291c-2.453 0-5.063-.66-7.611-2.002-10.793-5.684-22.012-8.427-37.742-11.245-5.653-1.013-9.444-4.67-9.894-9.543-.463-5.031 2.836-11.841 13.488-15.864 13.885-5.245 41.003 1.487 49.713 15.556 5.528 8.93 3.913 15.956.558 19.552-2.188 2.347-5.207 3.546-8.512 3.546zm-3.883-9.08c2.696 1.419 5.265 1.45 6.545.078 1.278-1.37 1.65-4.781-1.509-9.885-5.684-9.182-27.374-17.082-40.084-12.283-6.419 2.425-8.51 5.901-8.349 7.646.153 1.656 2.385 2.232 3.338 2.403 16.503 2.957 28.349 5.875 40.059 12.042zm-130.686-6.49c-13.264 1.086-25.069 5.306-39.074 11.048-8.979 3.682-14.651-5.57-5.881-17.269 8.243-10.995 32.614-18.502 45.357-12.344 13.294 6.424 10.424 17.68-.402 18.566z"/><path d="M508.733 308.587c-3.256 0-6.148-1.326-8.11-3.863-3.091-3.997-3.96-11.514 2.87-20.625 8.903-11.875 35.399-20.745 50.298-13.547 9.457 4.57 11.862 11.365 10.961 16.201-1.024 5.495-6.04 9.402-12.777 9.954-12.156.995-23.096 4.699-37.883 10.762-1.832.751-3.646 1.118-5.359 1.118zm32.059-32.601c-10.792 0-24.831 4.821-30.897 12.913-4.116 5.49-4.015 9.545-2.943 10.931 1.017 1.315 3.21.604 4.106.237 15.514-6.36 27.076-10.253 40.266-11.333 3.037-.249 5.221-1.601 5.565-3.446.343-1.842-1.173-4.92-6.578-7.532-2.485-1.201-5.812-1.771-9.519-1.771z"/><ellipse cx="656.861" cy="325.013" rx="10.311" ry="8.661" transform="matrix(.06036912 -.99817612 .99817612 .06036912 292.792 961.058)"/><ellipse cx="542.923" cy="320.735" rx="10.311" ry="8.661" transform="matrix(.06036912 -.99817612 .99817612 .06036912 190.001 843.307)"/><path d="M566.075 402.894c-15.907 0-32.202-7.216-39.154-19.35a4 4 0 1 1 6.941-3.977c7.989 13.942 33.957 19.825 49.618 11.242a4 4 0 0 1 3.846 7.016c-6.313 3.46-13.739 5.07-21.25 5.07zM441.98 260.316c12.377-24.822 16.746-164.487 138.58-158.781 165.751 7.764 136.865 139.174 153.131 180.503 3.52 8.944 27.67 4.848 30.961-12.071 9.216-47.38 13.49-131.845-47.996-179.015-84.036-64.469-203.919-52.149-260.573-1.091-49.747 44.834-56.088 113.306-45.097 164.312 8.448 39.206 30.993 6.143 30.993 6.143z"/><path d="M742.954 290.649c-6.333 0-11.21-2.636-12.985-7.146-3.603-9.155-5.056-22.019-6.739-36.914-3.079-27.255-6.91-61.174-25.855-88.851-22.237-32.484-60.509-49.562-117.002-52.208-95.696-4.487-116.417 83.883-127.559 131.356-2.641 11.255-4.728 20.145-7.255 25.213a3.995 3.995 0 0 1-.275.469c-1.176 1.725-11.825 16.783-23.255 14.551-7.158-1.4-12.049-8.63-14.953-22.104-6.134-28.466-6.213-59.07-.224-86.176 7.322-33.137 22.985-60.709 46.553-81.949 29.297-26.404 73.975-42.37 122.578-43.804 52.697-1.567 103.512 14.317 143.107 44.692 27.954 21.445 45.457 52.38 52.022 91.947 5.771 34.776 1.807 68.684-2.535 91.005-2.404 12.36-13.821 18.936-23.411 19.814-.755.069-1.494.104-2.214.104zM573.467 97.367c2.396 0 4.822.058 7.28.173 59.17 2.771 99.479 20.984 123.229 55.68 20.07 29.319 24.025 64.335 27.203 92.472 1.619 14.332 3.017 26.709 6.234 34.882.583 1.481 3.535 2.324 7.024 2.005 9.574-.878 15.155-7.549 16.289-13.375 4.216-21.676 8.071-54.567 2.495-88.168-6.223-37.5-22.708-66.74-49-86.909-38.139-29.258-87.142-44.547-138.002-43.043-46.736 1.379-89.548 16.597-117.458 41.75-22.305 20.103-37.142 46.255-44.097 77.733-5.746 26.007-5.664 55.4.233 82.765 2.036 9.446 5.193 15.255 8.664 15.938 4.853.962 12.053-6.837 14.959-10.981 2.071-4.327 4.13-13.1 6.507-23.228 5.546-23.633 13.928-59.349 33.477-88.184 22.289-32.875 54.212-49.508 94.964-49.508zM441.98 260.316h.01z"/></g><path d="M733.691 282.039c10.865-16.412 32.127-23.457 51.065-15.764 21.598 8.774 31.994 33.395 23.221 54.993-8.774 21.598-33.395 31.994-54.993 23.221-7.623-3.097-14.19-8.273-18.672-14.488-1.218 5.934-2.535 11.69-4.022 17.138" fill="#fff"/><path d="M768.875 351.617c-5.887 0-11.777-1.141-17.396-3.423a48.217 48.217 0 0 1-14.933-9.61 240.732 240.732 0 0 1-2.397 9.607 4 4 0 0 1-7.718-2.106c1.347-4.935 2.643-10.459 3.963-16.889a4 4 0 0 1 7.163-1.535c4.106 5.694 10.119 10.354 16.932 13.121 9.456 3.841 19.841 3.77 29.245-.2 9.402-3.97 16.696-11.364 20.537-20.82 7.93-19.521-1.5-41.852-21.02-49.781-16.793-6.822-36.234-.823-46.224 14.266a3.999 3.999 0 1 1-6.67-4.416c12.083-18.253 35.596-25.514 55.906-17.262 23.607 9.589 35.011 36.597 25.421 60.204-4.646 11.436-13.466 20.378-24.837 25.18-5.784 2.442-11.876 3.665-17.971 3.665z" fill="#3375e0"/><path d="M759.492 316.291a3.999 3.999 0 0 1-1.944-7.497l24.457-13.577a4 4 0 1 1 3.882 6.994l-24.457 13.577a3.975 3.975 0 0 1-1.938.503z" fill="#3375e0"/><path d="M778.144 323.869a4 4 0 0 1-3.665-2.394l-12.555-28.612a4 4 0 0 1 7.327-3.215l12.555 28.612a4 4 0 0 1-3.661 5.609z" fill="#3375e0"/><path d="M445.798 268.149c-7.674-21.761-32.532-30.906-52.243-25.493-22.48 6.174-35.698 29.402-29.524 51.882s29.402 35.698 51.882 29.524c7.934-2.179 15.865-6.232 21.046-11.877.235 4.644.81 10.364 1.607 16.785" fill="#fff"/><path d="M438.56 332.971a4.002 4.002 0 0 1-3.965-3.508 351.512 351.512 0 0 1-1.021-9.108c-4.67 3.244-10.349 5.848-16.604 7.566-11.902 3.268-24.365 1.707-35.093-4.398s-18.437-16.022-21.706-27.925c-3.269-11.902-1.707-24.365 4.398-35.093s16.022-18.437 27.924-21.705c20.692-5.686 48.397 3.414 57.075 28.02a4.002 4.002 0 0 1-2.442 5.103 4.003 4.003 0 0 1-5.103-2.442c-5.564-15.778-25.274-29.043-47.411-22.966-20.317 5.58-32.307 26.649-26.727 46.965 2.703 9.842 9.077 18.042 17.947 23.09s19.176 6.339 29.018 3.637c7.916-2.174 14.898-6.083 19.159-10.725a4 4 0 0 1 6.942 2.503c.215 4.257.732 9.653 1.581 16.495a4 4 0 0 1-3.975 4.493z" fill="#3375e0"/><path d="M415.253 295.388a3.98 3.98 0 0 1-2.335-.756l-22.691-16.357a4 4 0 1 1 4.677-6.489l22.691 16.357a4 4 0 0 1-2.342 7.245z" fill="#3375e0"/><path d="M395.838 300.72a4.002 4.002 0 0 1-3.445-6.028l15.831-26.938a4.001 4.001 0 0 1 6.898 4.054l-15.831 26.938a3.999 3.999 0 0 1-3.453 1.974z" fill="#3375e0"/><path d="M740.087 244.329c11.817-1.736 27.276-7.12 41.43-14.239 3.748-18.575 2.726-40.921.069-64.561 11.89 18.542 16.229 34.022 18.572 53.527 6.246-4.402 11.476-9.037 14.962-13.624C800.479 148.264 765.588 3.938 597.018 4c-188.246.069-214.629 152.616-214.629 212.827 0 0 35.809 17.834 58.538 15.722 0 0 7.568-44.492 17.58-61.98 10.012-17.489 257.999-22.434 266.898 4.663 8.899 27.098 14.681 69.097 14.681 69.097z" fill="#a8cffb"/><path d="M740.086 248.329a4.002 4.002 0 0 1-3.963-3.454c-.058-.417-5.838-41.96-14.519-68.395-.171-.521-2.315-5.206-24.677-9.434-35.775-6.766-95.291-7.698-139.059-6.314-64.236 2.03-92.883 8.355-95.927 11.887-9.526 16.717-16.998 60.164-17.072 60.601a4 4 0 0 1-3.573 3.312c-1.382.128-2.81.189-4.266.189-23.385.002-55.01-15.608-56.426-16.313a4 4 0 0 1-2.217-3.581c0-22.399 3.643-80.018 37.383-131.169 17.025-25.811 39.375-46.125 66.429-60.38C514.002 8.521 552.632.017 597.017 0h.109c72.741 0 129.514 26.693 168.748 79.34 32.174 43.173 44.957 93.171 52.595 123.044l.526 2.055a4.002 4.002 0 0 1-.69 3.413c-3.592 4.726-8.922 9.596-15.842 14.473a3.999 3.999 0 0 1-6.276-2.793c-1.489-12.396-3.725-23.333-8.851-35.021 1.271 19.054.64 33.792-1.898 46.369a3.997 3.997 0 0 1-2.124 2.782c-14.697 7.393-30.639 12.859-42.646 14.624a4.07 4.07 0 0 1-.582.042zm-147.311-96.151c29.413 0 57.669 1.171 79.938 3.435 15.655 1.592 28.212 3.687 37.323 6.228 11.401 3.179 17.492 7.038 19.168 12.143 7.376 22.462 12.55 54.391 14.247 65.695 10.148-2.049 22.635-6.485 34.509-12.291 2.797-15.374 2.68-34.449-.352-61.412a4 4 0 0 1 7.342-2.606c11.229 17.513 15.781 32.383 18.247 48.376 3.032-2.473 5.557-4.9 7.55-7.257l-.031-.122C795.691 145.603 760.498 8.001 597.124 8.001h-.107c-79.936.029-138.67 27.64-174.569 82.063-31.355 47.535-35.765 101.011-36.045 124.245 7.607 3.536 33.046 14.686 51.142 14.413 1.951-10.626 8.708-44.802 17.49-60.14 1.762-3.079 6.544-6.684 28.646-10.082 14.243-2.189 33.534-3.929 55.787-5.031 17.478-.866 35.604-1.291 53.307-1.291z" fill="#3375e0"/><path d="M436.423 216.827c13.035 6.958 33.991 11.879 59.116 15.117 2.958-19.293 15.865-36.907 34.852-53.494-2.29 20.969-1.032 40.486 7.021 57.222 80.259 4.491 178.249-2.948 209.631-14.318 0-58.615-55.008-127.259-155.31-127.295-105.575-.038-152.436 58.052-155.31 122.768z" fill="#a8cffb"/><path d="M586.758 240.966c-16.972 0-33.751-.416-49.569-1.301a4 4 0 0 1-3.381-2.259c-6.495-13.497-9.208-29.625-8.226-49.069-15.275 14.986-23.835 29.516-26.089 44.213a4.001 4.001 0 0 1-4.465 3.361c-27.422-3.535-47.773-8.768-60.488-15.556a3.999 3.999 0 0 1-2.112-3.706c1.582-35.607 15.576-66.2 40.472-88.471 27.876-24.938 68.938-38.12 118.735-38.12h.101c59.616.021 97.071 23.261 117.994 42.753 26.256 24.461 41.315 56.733 41.315 88.542a4 4 0 0 1-2.637 3.761c-26.266 9.517-95.417 15.853-161.648 15.853zm-46.72-9.157c80.843 4.275 171.428-3.329 202.962-13.31-.875-28.672-14.878-57.617-38.725-79.833-19.872-18.513-55.528-40.586-112.543-40.607h-.098c-47.802 0-87.013 12.476-113.401 36.083-22.656 20.268-35.651 47.989-37.676 80.298 11.389 5.491 28.763 9.869 51.747 13.039 3.837-17.518 15.474-34.583 35.456-52.04a3.998 3.998 0 0 1 6.608 3.446c-2.35 21.517-.495 38.863 5.67 52.925zM527.61 367.343c-34.066 0-61.781-27.715-61.781-61.781s27.715-61.781 61.781-61.781 61.781 27.715 61.781 61.781-27.715 61.781-61.781 61.781zm0-115.562c-29.655 0-53.781 24.126-53.781 53.781s24.126 53.781 53.781 53.781 53.781-24.126 53.781-53.781-24.126-53.781-53.781-53.781zm138.824 114.307h-.024c-34.066-.013-61.771-27.738-61.757-61.804.013-34.058 27.726-61.758 61.78-61.758h.024c34.066.013 61.771 27.739 61.758 61.805-.013 34.058-27.726 61.757-61.781 61.757zm-.001-115.562c-29.647 0-53.769 24.111-53.78 53.761-.011 29.655 24.105 53.79 53.76 53.801h.021c29.647.002 53.77-24.111 53.781-53.76.011-29.655-24.105-53.791-53.761-53.802z" fill="#3375e0"/><path d="M585.391 305.562h23.261" fill="#fff"/><path d="M608.652 309.562h-23.261a4 4 0 0 1 0-8h23.261a4 4 0 0 1 0 8z" fill="#3375e0"/><path d="m724.214 304.329 15.873-29.823" fill="#fff"/><path d="M724.211 308.33a4.002 4.002 0 0 1-3.528-5.881l15.872-29.823a4.002 4.002 0 0 1 7.063 3.759l-15.872 29.823a4.001 4.001 0 0 1-3.535 2.122z" fill="#3375e0"/><path d="m469.829 305.562-31.582-50.167" fill="#fff"/><path d="M469.833 309.563a3.997 3.997 0 0 1-3.389-1.87l-31.582-50.167a4 4 0 0 1 6.77-4.262l31.582 50.167a4 4 0 0 1-3.381 6.131z" fill="#3375e0"/><path d="M436.757 793.187c35.406-3.539 69.417-1.077 96.899 5.42 98.075 22.909 74.119 167.449-25.892 157.703-34.145-7.335-51.629-9.07-86.429-3.814" fill="#fff"/><path d="M517.363 960.785c-3.239 0-6.564-.161-9.986-.495a4.044 4.044 0 0 1-.452-.07c-34.059-7.315-51.114-8.886-84.991-3.77-2.185.332-4.222-1.174-4.552-3.358s1.173-4.223 3.358-4.552c35.035-5.292 52.656-3.695 87.639 3.81 22.064 2.101 41.712-3.571 56.833-16.402 13.576-11.52 22.751-28.178 25.837-46.906 3.086-18.729-.263-37.446-9.43-52.704-10.25-17.062-27.15-28.762-48.872-33.836-28.55-6.749-62.495-8.643-95.592-5.335a4 4 0 0 1-.796-7.96c33.956-3.396 68.837-1.438 98.218 5.507 23.867 5.575 42.508 18.544 53.899 37.503 10.143 16.883 13.86 37.525 10.466 58.124-5.771 35.023-33.593 70.44-81.579 70.443z" fill="#3375e0"/><path d="M533.657 798.607c67.447 14.762 84.356 31.006 104.805 49.113 65.36 57.876 16.723 110.03-37.49 44.027l-39.312-15.644" fill="#fff"/><path d="M649.054 926.541c-15.385 0-33.742-11.322-50.512-31.456l-38.361-15.266a3.999 3.999 0 1 1 2.958-7.432l39.312 15.644c.628.25 1.183.655 1.612 1.177 12.104 14.737 29.664 29.353 44.824 29.354 1.584 0 3.139-.159 4.662-.495 5.898-1.299 10.013-5.355 11.587-11.419 3.058-11.779-3.041-32.659-29.326-55.934l-1.641-1.455c-19.718-17.494-36.747-32.602-101.367-46.745a4 4 0 0 1 1.711-7.816c66.658 14.59 85.266 31.099 104.966 48.576l1.635 1.45c24.623 21.803 36.498 45.703 31.766 63.933-2.334 8.994-8.753 15.271-17.61 17.223-2.006.442-4.083.66-6.216.66z" fill="#3375e0"/><path d="M550.782 859.914c44.695 15.63 56.296 56.74 47.548 80.601-7.777 21.21-34.603 25.808-46.057 20.302-12.148-5.839-28.134-20.776-28.134-20.776" fill="#fff"/><path d="M563.276 966.943c-4.78 0-9.227-.834-12.736-2.522-12.555-6.035-28.461-20.831-29.132-21.458a4 4 0 0 1 5.461-5.846c.156.146 15.688 14.591 27.136 20.094 4.582 2.202 13.847 2.812 23.365-1.053 5.875-2.385 13.63-7.274 17.203-17.021 4.228-11.532 3.001-26.354-3.281-39.647-5.468-11.57-17.164-27.173-41.832-35.8a4 4 0 0 1 2.64-7.552c27.281 9.541 40.304 26.982 46.424 39.934 7.179 15.19 8.509 32.319 3.559 45.819-3.574 9.749-11.282 17.448-21.705 21.679-5.516 2.239-11.536 3.373-17.104 3.373z" fill="#3375e0"/><path d="M526.992 907.895c25.552 9.01 44.768 25.526 35.484 51.746-10.221 28.865-45.048 26.647-67.563 20.73-17.477-4.593-8.919-43.316 20.782-35.898" fill="#fff"/><path d="M521.496 988.04c-11.095 0-21.467-2.188-27.6-3.8-9.422-2.476-14.093-12.732-11.106-24.386 3.216-12.548 15.188-23.929 33.875-19.262a4 4 0 0 1-1.938 7.762c-9.699-2.424-20.938.809-24.186 13.486-1.581 6.167-.237 13.184 5.39 14.663 7.779 2.044 22.884 5.101 36.664 2.61 13.289-2.403 22.074-9.403 26.112-20.807 2.961-8.363 2.835-16.009-.374-22.726-4.659-9.751-15.956-18.02-32.669-23.913a4 4 0 0 1 2.661-7.545c18.76 6.615 31.633 16.3 37.228 28.009 4.158 8.702 4.393 18.407.697 28.844-4.995 14.106-16.14 23.1-32.23 26.01-4.152.75-8.387 1.054-12.521 1.055z" fill="#3375e0"/><path d="M132.644 766.918c37.98-18.603 120.141-20.153 149.017-19.848h98.154c158.28 4.01 158.223 236.017 0 240H133.88a120 120 0 0 1-100.941-55.109" fill="#a8cffb"/><path d="M379.815 991.07H133.88c-42.39 0-81.383-21.289-104.306-56.946a4 4 0 0 1 6.73-4.326c21.444 33.357 57.921 53.272 97.577 53.272h245.885c55.267-1.413 114.733-38.307 114.739-115.996.004-54.461-35.896-113.985-114.74-116.004h-98.103c-10.905-.115-39.54-.07-70.726 2.817-34.848 3.226-60.597 8.818-76.532 16.624a4 4 0 1 1-3.519-7.185c41.558-20.356 132.925-20.445 150.818-20.256h98.112l.101.001c37.861.959 69.646 14.783 91.919 39.979 19.78 22.375 30.671 52.215 30.669 84.024-.002 31.81-10.899 61.651-30.682 84.026-22.275 25.194-54.056 39.015-91.907 39.968l-.101.001z" fill="#3375e0"/><rect fill="#3375e0" height="22.068" rx="7" width="546.036" x="328.364" y="965.001"/><path d="M867.401 991.07H335.364c-6.065 0-11-4.935-11-11v-8.069c0-6.065 4.935-11 11-11h532.037c6.065 0 11 4.935 11 11v8.069c0 6.065-4.935 11-11 11zm-532.037-22.069c-1.654 0-3 1.346-3 3v8.069c0 1.654 1.346 3 3 3h532.037c1.654 0 3-1.346 3-3v-8.069c0-1.654-1.346-3-3-3z" fill="#3375e0"/><rect fill="#3375e0" height="363.828" rx="20.198" width="546.036" x="328.364" y="601.173"/><path d="M854.203 969.001H348.562c-13.343 0-24.198-10.855-24.198-24.197V621.371c0-13.342 10.855-24.197 24.198-24.197h505.641c13.343 0 24.198 10.855 24.198 24.197v323.433c0 13.342-10.855 24.197-24.198 24.197zM348.562 605.173c-8.932 0-16.198 7.266-16.198 16.197v323.433c0 8.931 7.266 16.197 16.198 16.197h505.641c8.932 0 16.198-7.266 16.198-16.197V621.37c0-8.931-7.266-16.197-16.198-16.197z" fill="#3375e0"/><path d="M854.203 969.001H348.562c-6.464 0-12.541-2.517-17.11-7.087a4 4 0 0 1 5.657-5.657 16.09 16.09 0 0 0 11.453 4.744h505.641c5.199 0 9.954-2.403 13.045-6.593a4 4 0 1 1 6.437 4.749c-4.547 6.164-11.831 9.844-19.482 9.844z" fill="#fff"/><path d="M1011.445 911.477h16.334c33.008 0 59.806 26.798 59.806 59.806v15.787H951.64v-15.787c0-33.008 26.798-59.806 59.806-59.806z" fill="#3375e0"/><path d="M1087.585 991.07H951.64a4 4 0 0 1-4-4v-15.788c0-35.182 28.623-63.805 63.805-63.805h16.334c35.182 0 63.805 28.623 63.805 63.805v15.788a4 4 0 0 1-4 4zm-131.945-8h127.945v-11.788c0-30.771-25.034-55.805-55.805-55.805h-16.334c-30.771 0-55.805 25.034-55.805 55.805v11.788z" fill="#3375e0"/><ellipse cx="1019.612" cy="965.123" fill="#fff" rx="8.53" ry="15.85"/><path d="M1019.612 984.974c-7.143 0-12.53-8.534-12.53-19.85s5.387-19.85 12.53-19.85 12.53 8.534 12.53 19.85-5.387 19.85-12.53 19.85zm0-31.701c-1.314 0-4.53 4.152-4.53 11.85s3.215 11.85 4.53 11.85 4.53-4.152 4.53-11.85-3.215-11.85-4.53-11.85zm69.399-28.681s-8.297 8.195-11.044 23.328c-4.26 23.471 14.954 34.156 31.293 23.48 9.564-6.249 23.041-15.547 20.355-38.627-3.97-34.103-37.317-43.897-67.936-11.135 0 0 13.7 8.902 17.912 19.757" fill="#fff"/><path d="M1096.178 979.545c-4.423 0-8.684-1.214-12.371-3.66-8.373-5.555-12.027-16.276-9.775-28.68a56.273 56.273 0 0 1 1.308-5.58c-4.219-8.978-15.723-16.557-15.844-16.636a4.003 4.003 0 0 1-.74-6.083c16.384-17.53 35.522-24.915 51.189-19.761 13.072 4.301 21.689 16.389 23.642 33.165 3.026 25.995-13.345 36.691-22.14 42.438-4.88 3.188-10.182 4.796-15.271 4.796zm-4.345-52.118c-.114.115-7.472 7.667-9.93 21.208-1.687 9.294.619 16.797 6.328 20.584 5.219 3.463 12.44 3.016 18.842-1.167 8.872-5.797 21.023-13.736 18.569-34.816-1.577-13.549-8.209-23.205-18.196-26.491-11.695-3.847-26.295 1.517-39.665 14.394 3.158 2.48 7.631 6.413 11.195 11.189 3.373-6.716 6.987-10.348 7.225-10.582a4 4 0 0 1 5.633 5.681z" fill="#3375e0"/><path d="M1030.271 889.563s-2.129 15.406 0 31.278c3.42 25.498 28.244 36.619 39.007 17.273 9.35-16.806 18.207-52.752.467-70.025s-58.664-3.877-72.226 47.063c0 0 13.009-6.028 31.934-3.674" fill="#fff"/><path d="M1054.337 951.921c-1.265 0-2.551-.121-3.852-.368-12.161-2.303-22.103-14.714-24.178-30.181a105.775 105.775 0 0 1-.646-6.253c-15.663-1.163-26.356 3.614-26.47 3.667a4.01 4.01 0 0 1-4.248-.581 3.998 3.998 0 0 1-1.289-4.083c11.415-42.875 38.553-53.451 46.599-55.671 12.542-3.461 24.307-.993 32.282 6.772 8.736 8.506 12.581 21.786 11.119 38.404-1.3 14.777-6.473 28.508-10.881 36.432-4.238 7.617-10.949 11.863-18.438 11.863zm-24.071-66.358a4.002 4.002 0 0 1 3.968 4.546c-.021.149-2.025 15.088.002 30.2 1.894 14.117 10.522 22.018 17.738 23.385 5.618 1.061 10.519-1.609 13.81-7.525 8.35-15.008 17.265-49.545 1.172-65.214-5.887-5.731-14.842-7.477-24.573-4.792-16.941 4.675-31.108 20.448-38.804 42.811 5.176-1.287 12.686-2.466 21.749-1.897-.104-10.021.919-17.609.982-18.061a4 4 0 0 1 3.957-3.452z" fill="#3375e0"/><path d="M957.497 911.477s1.806 12.341 9.445 31.68c8.736 22.117 40.248 23.9 44.14-3.643 2.496-17.662 2.407-33.466-6.541-49.865-18.052-33.086-86.517 5.919-56.172 81.741 0 0 6.821-23.47 16.858-32.719" fill="#fff"/><path d="M948.368 975.39a4 4 0 0 1-3.713-2.514c-20.751-51.853 3.064-85.435 24.135-95.356 16.033-7.548 31.812-3.445 39.263 10.212 10.042 18.406 9.295 36.034 6.99 52.341-1.874 13.26-10.215 22.348-21.77 23.717-12.069 1.43-23.878-5.685-29.317-17.45-5.739 8.292-10.264 21.068-11.745 26.166a4.002 4.002 0 0 1-3.843 2.884zm36.173-93.559c-4.288 0-8.629 1.177-12.344 2.926-16.896 7.956-35.622 33.898-23.802 74.5 2.798-6.993 6.995-15.779 12.209-21.584-5.544-15.516-6.999-25.16-7.066-25.617a4 4 0 0 1 7.916-1.162c.02.131 1.573 10.276 7.476 26.263a215.22 215.22 0 0 0 1.731 4.53c4.337 10.978 14.281 15.035 21.669 14.158 8.017-.949 13.407-7.106 14.79-16.891 2.44-17.271 2.338-31.939-6.092-47.39-3.899-7.146-10.135-9.733-16.489-9.733z" fill="#3375e0"/><path d="M904.02 958.849c-7.081 25.982 50.071 42.53 47.998 6.275-1.87-32.7-38.661-40.532-47.998-6.275z" fill="#fff"/><path d="M932.888 990.059c-8.144 0-17.039-2.988-23.822-8.495-8.005-6.499-11.25-15.162-8.905-23.767 2.323-8.523 6.473-15.346 12.001-19.73 5.174-4.104 11.511-5.996 17.851-5.333 14.311 1.501 25.001 14.727 25.999 32.162.603 10.542-3.351 18.541-11.132 22.523-3.487 1.784-7.632 2.641-11.991 2.641zM907.879 959.9c-2.019 7.406 3.036 12.86 6.229 15.453 7.842 6.367 20.01 8.585 27.126 4.943 4.928-2.522 7.213-7.55 6.79-14.944-.628-10.992-6.794-23.398-18.846-24.663-7.555-.786-17.109 3.842-21.299 19.211zM466.26 451.922a4 4 0 0 1-3.639-2.335c-8.06-17.593-7.922-31.98-7.912-32.583a4 4 0 0 1 3.998-3.935h.066a4 4 0 0 1 3.935 4.064c-.001.123-.075 13.272 7.187 29.122a4 4 0 0 1-3.635 5.667z" fill="#3375e0"/></svg></g><g transform="translate(144.70588235294116 885.8823529411765) rotate(-9.210650126088806 254.99999999999997 244.41176470588238) scale(1.7661297862982956 1.7673537227679186)"><svg width="288.767" height="276.585" viewBox="0 0 288.767 276.585"><path d="M242.01 88.141a109.807 109.807 0 0 0-16.991-24.302l13.783-30.595-37.71-24.312-22.189 25.196c-18.651-6.18-38.937-7.398-58.699-2.92L100.619 4l-39.91 20.502 10.71 31.767c-15.15 13.457-25.974 30.657-31.814 49.417l-33.404 3.362-2.2 44.814 32.898 6.615c1.967 9.506 5.207 18.91 9.859 27.966s10.41 17.167 16.992 24.303l-13.783 30.595 37.71 24.312 22.189-25.196c18.651 6.18 38.937 7.398 58.699 2.92l19.585 27.208 39.91-20.502-10.71-31.767c15.15-13.457 25.974-30.657 31.814-49.417l33.404-3.362 2.2-44.814-32.898-6.615a109.797 109.797 0 0 0-9.859-27.967zm-56.633 79.551c-30.616 38.611-89.04 19.841-91.439-29.376a44.033 44.033 0 0 1 9.455-29.428c30.615-38.603 89.03-19.838 91.437 29.373a44.029 44.029 0 0 1-9.453 29.431z" fill="#a8cffb"/><path d="M188.151 276.585a3.995 3.995 0 0 1-3.248-1.664l-18.058-25.086c-18.441 3.721-37.587 2.767-55.705-2.775l-20.462 23.235a4 4 0 0 1-5.169.718l-37.711-24.312a4 4 0 0 1-1.48-5.005l12.711-28.214a113.878 113.878 0 0 1-15.83-23.212 113.922 113.922 0 0 1-9.649-26.387l-30.337-6.1a4 4 0 0 1-3.207-4.118l2.2-44.814a4 4 0 0 1 3.595-3.784l30.805-3.101C42.654 84.01 53.03 67.891 66.794 55.069l-9.874-29.29a4 4 0 0 1 1.962-4.836L98.79.442a4 4 0 0 1 5.074 1.221l18.058 25.086c18.442-3.721 37.587-2.767 55.705 2.774l20.462-23.235a4 4 0 0 1 5.169-.718l37.711 24.312a4 4 0 0 1 1.48 5.005l-12.711 28.214a113.875 113.875 0 0 1 15.829 23.212 113.915 113.915 0 0 1 9.65 26.388l30.337 6.1a4 4 0 0 1 3.207 4.118l-2.2 44.814a4 4 0 0 1-3.595 3.784l-30.805 3.101c-6.048 17.955-16.424 34.075-30.188 46.898l9.874 29.29a4 4 0 0 1-1.962 4.836l-39.91 20.502a3.99 3.99 0 0 1-1.826.442zm-19.587-35.208a4 4 0 0 1 3.246 1.663l17.574 24.413 33.784-17.355-9.609-28.504a3.998 3.998 0 0 1 1.134-4.268c14.314-12.716 24.913-29.181 30.65-47.615a4 4 0 0 1 3.419-2.792l29.979-3.018 1.862-37.937-29.521-5.936a4.001 4.001 0 0 1-3.129-3.11 105.997 105.997 0 0 0-9.5-26.95 105.898 105.898 0 0 0-16.374-23.417 4.002 4.002 0 0 1-.707-4.355l12.369-27.456-31.923-20.581-19.913 22.612a3.994 3.994 0 0 1-4.26 1.153c-18.328-6.073-37.885-7.047-56.558-2.816a4.001 4.001 0 0 1-4.13-1.564L99.383 9.13 65.599 26.486l9.609 28.504a4 4 0 0 1-1.134 4.269c-14.314 12.715-24.913 29.18-30.65 47.614a4 4 0 0 1-3.419 2.792l-29.979 3.018-1.862 37.937 29.521 5.936a4.001 4.001 0 0 1 3.129 3.11 106.047 106.047 0 0 0 9.499 26.95 105.91 105.91 0 0 0 16.375 23.417 4.002 4.002 0 0 1 .707 4.355l-12.369 27.456 31.923 20.581 19.913-22.612a3.998 3.998 0 0 1 4.26-1.153c18.327 6.072 37.883 7.046 56.558 2.816a4.04 4.04 0 0 1 .884-.099zm-24.018-48.979c-5.536 0-11.147-.868-16.694-2.65-22.19-7.129-36.716-26.762-37.909-51.237a47.904 47.904 0 0 1 10.316-32.108c15.225-19.197 38.466-26.694 60.653-19.567 22.188 7.127 36.716 26.758 37.913 51.23a47.916 47.916 0 0 1-10.313 32.112c-11.42 14.402-27.351 22.22-43.965 22.22zm-.24-100.191c-14.237 0-27.929 6.747-37.779 19.167a39.915 39.915 0 0 0-8.594 26.748c1.027 21.062 13.429 37.926 32.366 44.01 18.938 6.083 38.841-.403 51.943-16.924a39.905 39.905 0 0 0 8.593-26.75c-1.03-21.06-13.434-37.921-32.369-44.004-4.699-1.509-9.461-2.245-14.16-2.245zm41.071 75.486h.01z" fill="#3375e0"/></svg></g><g transform="translate(2242.9411764705883 1072.9411764705883) rotate(0.0 306.17647058823513 198.52941176470586) scale(1.7655301356151005 1.7659930950978122)"><svg width="346.838" height="224.836" viewBox="0 0 346.838 224.836"><rect fill="#a8cffb" height="216.836" rx="15" width="338.838" x="4" y="4"/><path d="M327.838 224.836H19c-10.477 0-19-8.524-19-19V19C0 8.523 8.523 0 19 0h308.839c10.477 0 19 8.523 19 19v186.836c0 10.477-8.523 19-19 19zM19 8C12.935 8 8 12.935 8 19v186.836c0 6.065 4.935 11 11 11h308.839c6.065 0 11-4.935 11-11V19c0-6.065-4.935-11-11-11z" fill="#3375e0"/><path d="M121.003 69.772a2.997 2.997 0 0 0-2.875-.196l-75.877 35.063a3 3 0 0 0-1.742 2.723v13.543a3 3 0 0 0 1.739 2.722l75.877 35.156a2.997 2.997 0 0 0 2.876-.194 2.999 2.999 0 0 0 1.385-2.528V137.88a2.999 2.999 0 0 0-1.876-2.781l-51.253-20.714 51.272-21.131a2.999 2.999 0 0 0 1.857-2.773V72.3a2.998 2.998 0 0 0-1.384-2.527z" fill="#fff"/><path d="M119.386 163.062a7.03 7.03 0 0 1-2.942-.649l-75.878-35.156a7.024 7.024 0 0 1-4.057-6.352v-13.543a7.023 7.023 0 0 1 4.062-6.354l75.879-35.063a6.958 6.958 0 0 1 6.706.457 6.968 6.968 0 0 1 3.229 5.897V90.48c0 2.847-1.7 5.387-4.332 6.472l-42.212 17.397 42.167 17.042a6.97 6.97 0 0 1 4.377 6.49v18.181a6.966 6.966 0 0 1-3.232 5.899 6.987 6.987 0 0 1-3.768 1.101zm-74.877-42.795 73.877 34.229v-15.941l-50.628-20.462a4 4 0 0 1-.025-7.407l50.653-20.876V73.863l-73.877 34.139z" fill="#3375e0"/><path d="M206.117 36.091h-14.656a3.001 3.001 0 0 0-2.8 1.923l-56.398 146.653a3 3 0 0 0 2.801 4.077h14.749a3 3 0 0 0 2.801-1.925l56.305-146.653a3.001 3.001 0 0 0-2.801-4.075z" fill="#fff"/><path d="M149.812 192.745h-14.749a7 7 0 0 1-6.535-9.512l56.398-146.654a7.04 7.04 0 0 1 6.533-4.488h14.656a6.998 6.998 0 0 1 6.535 9.511l-56.304 146.652a7.04 7.04 0 0 1-6.535 4.491zm-13.294-8h12.606l55.537-144.653h-12.514l-55.63 144.653zm69.599-144.653h.01z" fill="#3375e0"/><path d="m304.543 104.526-79.217-35.063a3.001 3.001 0 0 0-4.214 2.743v17.625a3 3 0 0 0 1.906 2.793l54.227 21.247-54.238 21.498a3 3 0 0 0-1.895 2.789v17.81a3.002 3.002 0 0 0 4.217 2.742l79.217-35.156a3 3 0 0 0 1.783-2.742v-13.543c0-1.187-.7-2.263-1.786-2.743z" fill="#fff"/><path d="M224.112 162.969a6.984 6.984 0 0 1-3.815-1.131 6.978 6.978 0 0 1-3.185-5.869v-17.81a6.962 6.962 0 0 1 4.42-6.507l44.803-17.758L221.56 96.35a6.96 6.96 0 0 1-4.447-6.518V72.207a6.975 6.975 0 0 1 3.18-5.865 6.976 6.976 0 0 1 6.652-.536l79.219 35.063a7.006 7.006 0 0 1 4.165 6.401v13.543a7.004 7.004 0 0 1-4.161 6.398l-79.216 35.156a6.97 6.97 0 0 1-2.84.602zm1-24.131v15.593l77.217-34.269V107.92l-77.217-34.178v15.406l53.592 20.999a3.999 3.999 0 0 1 .015 7.443l-53.606 21.248zm77.807-30.656.004.001h-.004z" fill="#3375e0"/></svg></g><g transform="translate(264.70588235294116 2565.8823529411766) rotate(0.11060947555190156 1087.9411764705883 7.058823529411711) scale(1.7647058823529413 1.7647058823529278)"><svg width="1233" height="8" viewBox="0 0 1233 8"><line x2="100%" y1="50%" y2="50%" stroke-width="8" stroke="#3375E0" fill="#fff"/></svg></g><g transform="translate(575.2941176470588 674.1176470588235) rotate(-5.129499284145808 160.58823529411768 166.76470588235293) scale(1.699049745749342 1.6940832275900723)"><svg width="189.033" height="196.879" viewBox="0 0 189.033 196.879"><path d="M168.157 94.162a73.794 73.794 0 0 0-3.835-19.557l16.791-15.057-16.567-25.197-20.489 9.453c-9.783-8.87-21.92-15.134-35.284-17.756L104.134 4 74.029 5.749l-2.055 22.437c-12.971 4.152-24.3 11.779-32.991 21.722l-21.445-7.017L4 69.837l18.421 13.011a73.766 73.766 0 0 0-1.545 19.869 73.786 73.786 0 0 0 3.835 19.557L7.92 137.331l16.567 25.197 20.489-9.453c9.783 8.87 21.92 15.134 35.284 17.756l4.639 22.048 30.105-1.749 2.055-22.437c12.971-4.152 24.3-11.779 32.991-21.722l21.445 7.017 13.538-26.946-18.421-13.011a73.77 73.77 0 0 0 1.545-19.87Zm-56.439 33.494c-29.316 15.406-60.121-12.016-48.213-42.919a29.596 29.596 0 0 1 13.814-15.516c29.313-15.402 60.114 12.015 48.212 42.917a29.596 29.596 0 0 1-13.813 15.519Z" style="fill:#fff;stroke-width:0"/><path d="M84.897 196.879a4 4 0 0 1-3.912-3.176l-4.104-19.505c-11.971-2.783-23.143-8.407-32.587-16.402l-18.131 8.365a4 4 0 0 1-5.018-1.435L4.578 139.529a4 4 0 0 1 .671-5.176l14.859-13.324a77.817 77.817 0 0 1-3.226-18.081 77.85 77.85 0 0 1 1.11-18.331L1.693 73.103A4 4 0 0 1 .426 68.04l13.537-26.945a4.003 4.003 0 0 1 4.818-2.006l18.978 6.209c8.454-9.035 18.9-15.915 30.469-20.065l1.817-19.849a3.999 3.999 0 0 1 3.751-3.628L103.901.007a3.977 3.977 0 0 1 4.146 3.169l4.104 19.505c11.971 2.784 23.144 8.407 32.587 16.403l18.131-8.365a4 4 0 0 1 5.018 1.434l16.567 25.197a4 4 0 0 1-.671 5.176L168.924 75.85a77.818 77.818 0 0 1 3.226 18.08 77.859 77.859 0 0 1-1.11 18.332l16.301 11.514a4.001 4.001 0 0 1 1.267 5.063l-13.537 26.946a4.003 4.003 0 0 1-4.818 2.006l-18.979-6.209c-8.454 9.035-18.899 15.915-30.468 20.065l-1.817 19.849a4 4 0 0 1-3.752 3.628l-30.105 1.749a3.647 3.647 0 0 1-.233.007Zm-39.922-47.804c.975 0 1.937.355 2.688 1.037 9.438 8.556 20.976 14.363 33.367 16.794a4 4 0 0 1 3.145 3.102l3.93 18.679 23.231-1.349 1.74-19.008a3.998 3.998 0 0 1 2.764-3.445c12.028-3.85 22.816-10.955 31.198-20.545a3.994 3.994 0 0 1 4.256-1.169l18.174 5.946 10.445-20.792-15.608-11.025a4.002 4.002 0 0 1-1.603-4.111 69.865 69.865 0 0 0 1.462-18.793 69.862 69.862 0 0 0-3.628-18.498 4.001 4.001 0 0 1 1.115-4.269l14.228-12.758-12.783-19.443-17.362 8.01a3.999 3.999 0 0 1-4.362-.669c-9.438-8.556-20.976-14.363-33.368-16.794a4 4 0 0 1-3.144-3.102l-3.931-18.679-23.23 1.35-1.74 19.008a3.998 3.998 0 0 1-2.764 3.445c-12.028 3.85-22.816 10.955-31.199 20.545a3.999 3.999 0 0 1-4.256 1.169l-18.173-5.946L9.122 68.557 24.73 79.582a4.002 4.002 0 0 1 1.603 4.111 69.865 69.865 0 0 0-1.462 18.793 69.861 69.861 0 0 0 3.628 18.499 4.001 4.001 0 0 1-1.115 4.269l-14.228 12.758 12.783 19.443 17.362-8.01a3.982 3.982 0 0 1 1.675-.368Zm49.397-12.978c-9.048 0-17.781-3.229-24.879-9.546C57.374 115.763 53.649 99.19 59.772 83.3a33.509 33.509 0 0 1 15.686-17.619c15.074-7.919 31.963-6.138 44.082 4.648 12.117 10.787 15.844 27.358 9.724 43.247a33.504 33.504 0 0 1-15.685 17.622c-6.246 3.282-12.806 4.899-19.207 4.899Zm.246-67.282c-5.133 0-10.405 1.303-15.439 3.947a25.505 25.505 0 0 0-11.941 13.414c-4.895 12.702-1.991 25.883 7.575 34.399 9.566 8.515 22.994 9.873 35.046 3.54l1.86 3.541-1.86-3.541a25.504 25.504 0 0 0 11.94-13.416c4.892-12.701 1.988-25.881-7.578-34.396-5.569-4.958-12.449-7.489-19.603-7.489Z" style="stroke-width:0;fill:#3375e0"/></svg></g></svg>